<?xml version="1.0" encoding="UTF-8" standalone="no"?>
<svg width="51px" height="56px" viewBox="0 0 51 56" version="1.1" xmlns="http://www.w3.org/2000/svg" xmlns:xlink="http://www.w3.org/1999/xlink" xmlns:sketch="http://www.bohemiancoding.com/sketch/ns">
    <!-- Generator: Sketch 3.4.4 (17249) - http://www.bohemiancoding.com/sketch -->
    <title>Challenges Icon</title>
    <desc>Created with Sketch.</desc>
    <defs></defs>
    <g id="Page-1" stroke="none" stroke-width="1" fill="none" fill-rule="evenodd" sketch:type="MSPage">
        <g id="Home-Screen-(iPhone-5/5S/5C-Portrait-320x568)" sketch:type="MSArtboardGroup" transform="translate(-20.000000, -527.000000)">
            <g id="Challenges" sketch:type="MSLayerGroup" transform="translate(10.000000, 507.000000)">
                <g id="Challenges-Icon" transform="translate(10.000000, 20.000000)" sketch:type="MSShapeGroup">
                    <path d="M50.4325839,1.99214615 C49.5003258,1.18822308 40.3428097,3.10756923 40.3428097,3.10756923 L41.0282935,5.53064615 C41.0282935,5.53064615 47.2727774,4.10210769 47.6508903,4.42814615 C48.1916,4.89391538 47.0890677,13.4121077 47.0890677,13.4121077 C46.9736323,15.2555308 46.4710355,16.9422615 45.5949871,18.4278769 C44.7194871,19.9118769 43.4878097,21.1804923 41.9339548,22.1976462 C40.3773581,23.2156077 38.4736323,23.9831846 36.275971,24.4777615 C35.0368903,24.7572231 33.6700355,24.9394923 32.2137935,25.0199923 L32.0890355,25.0275308 L32.0745032,25.5237231 C32.0550355,26.1736462 32.0289871,26.8249154 32.0001968,27.4753769 L31.9944387,27.6056846 L32.1455194,27.5976077 C33.8839065,27.5055308 35.5378419,27.2734538 37.0612613,26.9070308 C37.2992613,26.8496846 36.0928097,28.3143 36.0928097,28.3143 C37.0182129,29.9633385 41.7039065,29.1672231 42.0573419,27.9672615 C42.1406968,27.6837615 42.0740677,27.2626846 41.9336806,26.9961462 C41.1848581,25.5738 38.9128903,28.2273385 39.3356968,26.6472231 C39.3960194,26.4216077 39.5207774,26.2164538 39.7590516,26.0888385 C41.1810194,25.5589923 42.4694548,24.9061077 43.6090032,24.1358385 C45.4337613,22.9030308 46.8878097,21.3670692 47.9311161,19.5723769 C48.9738742,17.7771462 49.5551645,16.0395308 49.9708419,13.7521462 C49.9708419,13.7521462 51.6302613,3.02518462 50.4325839,1.99214615" id="Fill-1" fill="#F9E08F"></path>
                    <path d="M50.4325839,1.99214615 C49.5003258,1.18822308 41.0282935,5.53064615 41.0282935,5.53064615 C41.0282935,5.53064615 47.2727774,4.10210769 47.6508903,4.42814615 C48.1916,4.89391538 47.0890677,13.4121077 47.0890677,13.4121077 C46.9736323,15.2555308 46.4710355,16.9422615 45.5949871,18.4278769 C44.7194871,19.9118769 43.4878097,21.1804923 41.9339548,22.1976462 C40.3773581,23.2156077 38.4736323,23.9831846 36.275971,24.4777615 C35.0368903,24.7572231 33.6700355,24.9394923 32.2137935,25.0199923 L32.0890355,25.0275308 L32.0745032,25.5237231 C32.0550355,26.1736462 32.0289871,26.8249154 32.0001968,27.4753769 L31.9944387,27.6056846 L32.1455194,27.5976077 C33.8839065,27.5055308 35.5378419,27.2734538 37.0612613,26.9070308 C37.2992613,26.8496846 36.0928097,28.3143 36.0928097,28.3143 C37.0182129,29.9633385 41.7039065,29.1672231 42.0573419,27.9672615 C42.1406968,27.6837615 42.0740677,27.2626846 41.9336806,26.9961462 C41.1848581,25.5738 38.9128903,28.2273385 39.3356968,26.6472231 C39.3960194,26.4216077 39.5207774,26.2164538 39.7590516,26.0888385 C41.1810194,25.5589923 42.4694548,24.9061077 43.6090032,24.1358385 C45.4337613,22.9030308 46.8878097,21.3670692 47.9311161,19.5723769 C48.9738742,17.7771462 49.5551645,16.0395308 49.9708419,13.7521462 C49.9708419,13.7521462 51.6302613,3.02518462 50.4325839,1.99214615" id="Fill-3" fill="#EDCE6B"></path>
                    <path d="M0.434322581,1.99214615 C1.36630645,1.18822308 10.4898226,3.14122308 10.4898226,3.14122308 L9.8386129,5.59795385 C9.8386129,5.59795385 3.59412903,4.10210769 3.21601613,4.42814615 C2.67503226,4.89391538 3.77783871,13.4121077 3.77783871,13.4121077 C3.89327419,15.2555308 4.39587097,16.9422615 5.27191935,18.4278769 C6.14741935,19.9118769 7.37909677,21.1804923 8.93295161,22.1976462 C10.4895484,23.2156077 12.3932742,23.9831846 14.5906613,24.4777615 C15.8300161,24.7572231 17.196871,24.9394923 18.6531129,25.0199923 L18.777871,25.0275308 L18.7924032,25.5237231 C18.811871,26.1736462 18.8379194,26.8249154 18.8667097,27.4753769 L18.8724677,27.6056846 L18.7213871,27.5976077 C16.9827258,27.5055308 15.3290645,27.2734538 13.8056452,26.9070308 C13.5676452,26.8496846 14.3924194,27.0518769 14.1601774,26.9888769 C14.570371,27.7874154 14.128371,28.2443 14.128371,28.2443 C13.4393226,29.5285308 9.163,29.1672231 8.80956452,27.9672615 C8.72593548,27.6837615 8.79283871,27.2626846 8.93322581,26.9961462 C9.68204839,25.5738 11.9540161,28.2273385 11.5312097,26.6472231 C11.4708871,26.4216077 11.346129,26.2164538 11.1078548,26.0888385 C9.6858871,25.5589923 8.39745161,24.9061077 7.25762903,24.1358385 C5.43314516,22.9030308 3.97882258,21.3670692 2.93579032,19.5723769 C1.89303226,17.7771462 1.31174194,16.0395308 0.896064516,13.7521462 C0.896064516,13.7521462 -0.763354839,3.02518462 0.434322581,1.99214615" id="Fill-5" fill="#F9E08F"></path>
                    <path d="M41.4686758,1.46448077 C41.5594339,1.26578846 41.742321,1.11017308 41.742321,0.873788462 C41.742321,0.438711538 41.3875145,0.0860192308 40.9499016,0.0860192308 C40.9499016,0.0860192308 29.6470952,0.611288462 25.8794016,0.611288462 C21.8717887,0.611288462 9.85004677,0.0860192308 9.85004677,0.0860192308 C9.41243387,0.0860192308 9.05790161,0.438711538 9.05790161,0.873788462 C9.05790161,1.11017308 9.24024032,1.26578846 9.33127258,1.46448077 C9.72995,2.33544231 9.32524032,6.50367308 9.32524032,6.63882692 C9.32524032,21.8635577 13.3684984,28.6780577 17.3528048,31.7211731 C17.3659661,31.73625 17.3837887,31.7518654 17.4128532,31.76775 C17.8033048,32.0620192 18.1923855,32.3188654 18.5776274,32.5458269 C23.7546758,36.4749808 22.7396113,43.8694038 22.5018855,45.2309038 L28.2934016,45.2309038 C28.0255145,43.8653654 26.858821,36.4354038 32.290321,32.5067885 C36.6072242,29.9248654 41.4747081,23.3440577 41.4747081,6.63882692 C41.4747081,6.50367308 41.0699984,2.33544231 41.4686758,1.46448077" id="Fill-7" fill="#F3D76C"></path>
                    <path d="M0.434322581,1.99214615 C1.36630645,1.18822308 9.8386129,5.59795385 9.8386129,5.59795385 C9.8386129,5.59795385 3.59412903,4.10210769 3.21601613,4.42814615 C2.67503226,4.89391538 3.77783871,13.4121077 3.77783871,13.4121077 C3.89327419,15.2555308 4.39587097,16.9422615 5.27191935,18.4278769 C6.14741935,19.9118769 7.37909677,21.1804923 8.93295161,22.1976462 C10.4895484,23.2156077 12.3932742,23.9831846 14.5906613,24.4777615 C15.8300161,24.7572231 17.196871,24.9394923 18.6531129,25.0199923 L18.777871,25.0275308 L18.7924032,25.5237231 C18.811871,26.1736462 18.8379194,26.8249154 18.8667097,27.4753769 L18.8724677,27.6056846 L18.7213871,27.5976077 C16.9827258,27.5055308 15.3290645,27.2734538 13.8056452,26.9070308 C13.5676452,26.8496846 14.3924194,27.0518769 14.1601774,26.9888769 C14.570371,27.7874154 14.128371,28.2443 14.128371,28.2443 C13.4393226,29.5285308 9.163,29.1672231 8.80956452,27.9672615 C8.72593548,27.6837615 8.79283871,27.2626846 8.93322581,26.9961462 C9.68204839,25.5738 11.9540161,28.2273385 11.5312097,26.6472231 C11.4708871,26.4216077 11.346129,26.2164538 11.1078548,26.0888385 C9.6858871,25.5589923 8.39745161,24.9061077 7.25762903,24.1358385 C5.43314516,22.9030308 3.97882258,21.3670692 2.93579032,19.5723769 C1.89303226,17.7771462 1.31174194,16.0395308 0.896064516,13.7521462 C0.896064516,13.7521462 -0.763354839,3.02518462 0.434322581,1.99214615" id="Fill-9" fill="#EDCE6B"></path>
                    <path d="M9.8499371,0.0859653846 C9.41232419,0.0859653846 9.05779194,0.438926923 9.05779194,0.873734615 C9.05779194,1.11038846 9.24013065,1.26573462 9.3311629,1.46442692 C9.73011452,2.33538846 9.32513065,6.50361923 9.32513065,6.63877308 C9.32513065,21.8637731 13.3683887,28.6780038 17.3526952,31.7211192 C17.3658565,31.7364654 17.3839532,31.7518115 17.4127435,31.7676962 C17.8031952,32.0622346 18.19255,32.3190808 18.5775177,32.5457731 C23.7548403,36.4749269 22.7397758,43.86935 22.50205,45.23085 L28.2935661,45.23085 C28.0254048,43.8653115 26.8587113,36.43535 32.2904855,32.5067346 C36.6071145,29.9248115 9.8499371,0.0859653846 9.8499371,0.0859653846" id="Fill-11" fill="#FFDE73"></path>
                    <path d="M34.2832968,51.2211538 L34.1785548,51.2211538 C34.1796516,51.1982692 34.1854097,51.1767308 34.1854097,51.1538462 L34.1854097,49.0673077 C34.1854097,48.3239615 33.5717645,47.7211538 32.8144419,47.7211538 L32.3803935,47.7211538 L32.3803935,45.9937692 C32.3803935,45.2504231 31.7664742,44.6476154 31.0094258,44.6476154 L19.5846032,44.6476154 C18.8275548,44.6476154 18.2136355,45.2504231 18.2136355,45.9937692 L18.2136355,47.7211538 L17.7795871,47.7211538 C17.0222645,47.7211538 16.4086194,48.3239615 16.4086194,49.0673077 L16.4086194,51.1538462 C16.4086194,51.1767308 16.4143774,51.1982692 16.4154742,51.2211538 L16.3107323,51.2211538 C15.4053452,51.2211538 14.6721516,51.8239615 14.6721516,52.5673077 L14.6721516,54.6538462 C14.6721516,55.3971923 15.4053452,56 16.3107323,56 L34.2832968,56 C35.1886839,56 35.9221516,55.3971923 35.9221516,54.6538462 L35.9221516,52.5673077 C35.9221516,51.8239615 35.1886839,51.2211538 34.2832968,51.2211538" id="Fill-13" fill="#EFD06C"></path>
                    <path d="M34.2832968,51.2211538 L34.1785548,51.2211538 C34.1796516,51.1982692 34.1854097,51.1767308 34.1854097,51.1538462 L34.1854097,49.0673077 C34.1854097,48.3239615 33.5717645,47.7211538 32.8144419,47.7211538 L17.7795871,47.7211538 C17.0222645,47.7211538 16.4086194,48.3239615 16.4086194,49.0673077 L16.4086194,51.1538462 C16.4086194,51.1767308 16.4143774,51.1982692 16.4154742,51.2211538 L16.3107323,51.2211538 C15.4053452,51.2211538 14.6721516,51.8239615 14.6721516,52.5673077 L14.6721516,54.6538462 C14.6721516,55.3971923 15.4053452,56 16.3107323,56 L34.2832968,56 C35.1886839,56 35.9221516,55.3971923 35.9221516,54.6538462 L35.9221516,52.5673077 C35.9221516,51.8239615 35.1886839,51.2211538 34.2832968,51.2211538" id="Fill-15" fill="#EBCC6A"></path>
                    <path d="M34.2832968,51.2211538 L34.1785548,51.2211538 C34.1796516,51.1982692 16.4143774,51.1982692 16.4154742,51.2211538 L16.3107323,51.2211538 C15.4053452,51.2211538 14.6721516,51.8239615 14.6721516,52.5673077 L14.6721516,54.6538462 C14.6721516,55.3971923 15.4053452,56 16.3107323,56 L34.2832968,56 C35.1886839,56 35.9221516,55.3971923 35.9221516,54.6538462 L35.9221516,52.5673077 C35.9221516,51.8239615 35.1886839,51.2211538 34.2832968,51.2211538" id="Fill-17" fill="#E2C269"></path>
                    <path d="M28.2080452,20.8866808 L28.2080452,22.6584885 L20.4044968,22.6584885 L20.4044968,20.8866808 L23.2624161,20.8866808 L23.2624161,12.81245 C23.2624161,12.4931423 23.2722871,12.1641423 23.2917548,11.8259885 L21.2629968,13.4922577 C21.1459161,13.5819115 21.0302065,13.6376423 20.9166903,13.6599885 C20.8026258,13.6823346 20.6954161,13.68395 20.5945129,13.6648346 C20.4938839,13.64545 20.4044968,13.6120654 20.3263516,13.5641423 C20.2484806,13.5162192 20.1898032,13.4637192 20.1508677,13.4061038 L19.3899806,12.3811423 L23.6918032,8.78960385 L25.672029,8.78960385 L25.672029,20.8866808 L28.2080452,20.8866808 Z" id="Fill-19" fill="#FFFFFF"></path>
                    <path d="M29.9628565,12.0896192 C29.9354371,12.1326962 29.9066468,12.1631192 29.8764855,12.18035 C29.8463242,12.19785 29.8079371,12.2067346 29.7613242,12.2067346 C29.7119694,12.2067346 29.65905,12.1932731 29.6028403,12.1660808 C29.5466306,12.1394269 29.4816468,12.1090038 29.4076145,12.07535 C29.3335823,12.0416962 29.2491306,12.0115423 29.1545339,11.98435 C29.0602113,11.9576962 28.9483403,11.9442346 28.8194694,11.9442346 C28.6193081,11.9442346 28.4621952,11.9859654 28.3484048,12.0694269 C28.2346145,12.1526192 28.1778565,12.2619269 28.1778565,12.3965423 C28.1778565,12.4853885 28.2071952,12.5599654 28.2661468,12.6205423 C28.3250984,12.6811192 28.4032435,12.7344269 28.5005823,12.7799269 C28.597921,12.8256962 28.708421,12.8668885 28.8318081,12.9035038 C28.9551952,12.9395808 29.0805016,12.9794269 29.2080016,13.0225038 C29.3355016,13.0655808 29.4610823,13.11485 29.5844694,13.1697731 C29.7078565,13.2249654 29.8180823,13.2952346 29.915421,13.3797731 C30.0127597,13.4645808 30.0909048,13.5660808 30.1498565,13.6848115 C30.2088081,13.8032731 30.238421,13.9459654 30.238421,14.1128885 C30.238421,14.3121192 30.2019532,14.4960038 30.1292919,14.6642731 C30.0566306,14.8325423 29.9491468,14.9779269 29.8065661,15.1004269 C29.6639855,15.2229269 29.487679,15.3182346 29.277921,15.3868885 C29.0681629,15.4555423 28.82605,15.4900038 28.5521306,15.4900038 C28.4068081,15.4900038 28.2647758,15.4770808 28.1263081,15.4515038 C27.9878403,15.4259269 27.8548565,15.3903885 27.7273565,15.3446192 C27.5998565,15.29885 27.4819532,15.2450038 27.3736468,15.1828115 C27.2653403,15.1211577 27.1701952,15.05385 27.0879371,14.9808885 L27.3223726,14.6015423 C27.3522597,14.5557731 27.388179,14.5205038 27.4293081,14.4962731 C27.4704371,14.4723115 27.5225339,14.4601962 27.5855984,14.4601962 C27.6486629,14.4601962 27.7081629,14.4776962 27.7643726,14.5126962 C27.8205823,14.5476962 27.8858403,14.5853885 27.9598726,14.6257731 C28.0339048,14.6658885 28.1208242,14.70385 28.2209048,14.73885 C28.3209855,14.77385 28.4479371,14.7910808 28.6014855,14.7910808 C28.7221306,14.7910808 28.8255016,14.7770808 28.9118726,14.7488115 C28.9982435,14.7208115 29.0695339,14.6836577 29.1257435,14.6378885 C29.1819532,14.5921192 29.2230823,14.5388115 29.2491306,14.4782346 C29.275179,14.4179269 29.2883403,14.3551962 29.2883403,14.2905808 C29.2883403,14.1933885 29.2587274,14.1142346 29.1997758,14.0523115 C29.1408242,13.9903885 29.062679,13.9362731 28.9653403,13.8905038 C28.8680016,13.8450038 28.7569532,13.8038115 28.6321952,13.7674654 C28.5074371,13.7311192 28.3799371,13.6915423 28.2496952,13.6484654 C28.1194532,13.6053885 27.9919532,13.5547731 27.8671952,13.4971577 C27.7424371,13.4392731 27.6313887,13.3655038 27.53405,13.2766577 C27.4367113,13.1880808 27.3585661,13.0790423 27.2996145,12.9495423 C27.2406629,12.8205808 27.2113242,12.6644269 27.2113242,12.48135 C27.2113242,12.3114654 27.2455984,12.1501962 27.3141468,11.9964654 C27.3826952,11.8432731 27.4833242,11.7091962 27.6163081,11.5947731 C27.7492919,11.48035 27.915179,11.3890808 28.1139694,11.3204269 C28.3127597,11.2515038 28.5425339,11.2173115 28.8030177,11.2173115 C29.0936629,11.2173115 29.3582597,11.2644269 29.5968081,11.3583885 C29.8353565,11.4528885 30.0341468,11.5767346 30.193179,11.7301962 L29.9628565,12.0896192 Z" id="Fill-21" fill="#FFFFFF"></path>
                    <path d="M32.409979,15.4899769 C32.0425597,15.4899769 31.7606887,15.3882077 31.5646403,15.1849385 C31.3688661,14.9816692 31.2707048,14.7011308 31.2707048,14.3430538 L31.2707048,12.0290154 L30.83885,12.0290154 C30.7840113,12.0290154 30.7373984,12.0115154 30.6990113,11.9765154 C30.6606242,11.9415154 30.6414306,11.8890154 30.6414306,11.8190154 L30.6414306,11.4232462 L31.3200597,11.3142077 L31.5339306,10.1834385 C31.5476403,10.1295923 31.5736887,10.0878615 31.6120758,10.0582462 C31.6504629,10.0286308 31.6998177,10.0138231 31.7601403,10.0138231 L32.2865919,10.0138231 L32.2865919,11.3182462 L33.4135274,11.3182462 L33.4135274,12.0290154 L32.2865919,12.0290154 L32.2865919,14.2741308 C32.2865919,14.4036308 32.3186726,14.5045923 32.3831081,14.5770154 C32.4475435,14.6499769 32.5361081,14.6863231 32.6485274,14.6863231 C32.7115919,14.6863231 32.7642371,14.6787846 32.8070113,14.6642462 C32.8495113,14.6491692 32.8862532,14.6335538 32.9180597,14.6176692 C32.9493177,14.6015154 32.9775597,14.5861692 33.0022371,14.5710923 C33.0269145,14.5562846 33.0515919,14.5490154 33.0762694,14.5490154 C33.1064306,14.5490154 33.1311081,14.5562846 33.1503016,14.5710923 C33.1694952,14.5861692 33.1900597,14.6082462 33.2119952,14.6378615 L33.51635,15.1224769 C33.3682855,15.2436308 33.1982855,15.3351692 33.00635,15.3968231 C32.8144145,15.4590154 32.6156242,15.4899769 32.409979,15.4899769" id="Fill-23" fill="#FFFFFF"></path>
                </g>
            </g>
        </g>
    </g>
</svg>