<?xml version="1.0" encoding="UTF-8" standalone="no"?>
<svg width="55px" height="50px" viewBox="0 0 55 50" version="1.1" xmlns="http://www.w3.org/2000/svg" xmlns:xlink="http://www.w3.org/1999/xlink" xmlns:sketch="http://www.bohemiancoding.com/sketch/ns">
    <!-- Generator: Sketch 3.4.4 (17249) - http://www.bohemiancoding.com/sketch -->
    <title>DHA Icon</title>
    <desc>Created with Sketch.</desc>
    <defs>
        <path id="path-1" d="M0,0.0306220096 L54.9406769,0.0306220096 L54.9406769,50 L0,50"></path>
        <path id="path-3" d="M0,0.0306220096 L54.9406769,0.0306220096 L54.9406769,50 L0,50"></path>
        <path id="path-5" d="M0,0.0306220096 L54.9406769,0.0306220096 L54.9406769,50 L0,50"></path>
    </defs>
    <g id="Page-1" stroke="none" stroke-width="1" fill="none" fill-rule="evenodd" sketch:type="MSPage">
        <g id="Home-Screen-(iPhone-5/5S/5C-Portrait-320x568)" sketch:type="MSArtboardGroup" transform="translate(-21.000000, -337.000000)">
            <g id="DHA" sketch:type="MSLayerGroup" transform="translate(10.000000, 317.000000)">
                <g id="DHA-Icon" transform="translate(11.000000, 20.000000)">
                    <path d="M45.9706528,9.05624258 L30.2027682,9.96930626 L20.7041468,10.5193479 L6,18.253259 C6,18.253259 13.6628282,33.2823147 14.2838294,33.2823147 C14.9053391,33.2823147 26.5032088,37.9930622 26.5032088,37.9930622 L43.2783764,19.5990294 L48.6631834,5.69181639 L37.0650594,3 L31.2794753,6.58918033 L28.3890991,14.4401508" id="Fill-1" fill="#EBEBEB" sketch:type="MSShapeGroup"></path>
                    <g id="Group-5">
                        <mask id="mask-2" sketch:name="Clip 4" fill="white">
                            <use xlink:href="#path-1"></use>
                        </mask>
                        <g id="Clip-4"></g>
                        <path d="M43.2285109,16.9975598 L28.6405415,31.6480383 C27.8976812,32.3944498 26.9206507,32.7690909 25.9426594,32.7690909 C24.9677904,32.7690909 23.9907598,32.3944498 23.2478996,31.6480383 L16.291,24.6619139 C15.1734672,23.5401435 15.1734672,21.7193301 16.291,20.5973206 C17.4087729,19.4745933 19.2184891,19.4745933 20.336262,20.5973206 L25.9426594,26.2288995 L39.1825284,12.9341627 C40.299821,11.8114354 42.1100175,11.8114354 43.2285109,12.9341627 C44.3458035,14.0561722 44.3458035,15.8755502 43.2285109,16.9975598 M41.19231,0.0305741627 C35.2340568,0.0305741627 29.9425284,3.52435407 27.4680087,8.44947368 C25.0004541,3.52435407 19.7132489,0.0305741627 13.7525939,0.0305741627 C5.91137118,0.0305741627 -4.80349345e-05,6.30832536 -4.80349345e-05,14.632488 C-4.80349345e-05,31.3611962 17.8223537,43.6104785 24.5316332,48.2229187 C25.370083,48.7954067 26.240476,49.3913397 26.4292533,49.5726794 C26.7114585,49.8616746 27.0868515,49.9999522 27.4603231,49.9999522 C27.8436419,49.9999522 28.224559,49.8602392 28.5170917,49.5726794 C28.7034672,49.3930144 29.5668952,48.798756 30.4079869,48.2248325 C37.1184672,43.6116746 54.9406288,31.3628708 54.9406288,14.632488 C54.9406288,6.30832536 49.0292096,0.0305741627 41.19231,0.0305741627" id="Fill-3" fill="#E86776" sketch:type="MSShapeGroup" mask="url(#mask-2)"></path>
                    </g>
                    <g id="Group-8">
                        <mask id="mask-4" sketch:name="Clip 7" fill="white">
                            <use xlink:href="#path-3"></use>
                        </mask>
                        <g id="Clip-7"></g>
                        <path d="M43.2285109,16.9975598 L28.6405415,31.6480383 C27.8976812,32.3944498 26.9206507,32.7690909 25.9426594,32.7690909 C24.9677904,32.7690909 23.9907598,32.3944498 23.2478996,31.6480383 L16.291,24.6619139 C15.1734672,23.5401435 15.1734672,21.7193301 16.291,20.5973206 C17.4087729,19.4745933 19.2184891,19.4745933 20.336262,20.5973206 L25.9426594,26.2288995 L39.1825284,12.9341627 C40.299821,11.8114354 42.1100175,11.8114354 43.2285109,12.9341627 C44.3458035,14.0561722 44.3458035,15.8755502 43.2285109,16.9975598 M29.4295153,10.9114354 C23.9033362,10.9080861 19.7132489,0.0305741627 13.7525939,0.0305741627 C5.91137118,0.0305741627 -4.80349345e-05,6.30832536 -4.80349345e-05,14.632488 C-4.80349345e-05,31.3611962 17.8223537,43.6104785 24.5316332,48.2229187 C25.370083,48.7954067 26.240476,49.3913397 26.4292533,49.5726794 C26.7114585,49.8616746 27.0868515,49.9999522 27.4603231,49.9999522 C27.8436419,49.9999522 28.224559,49.8602392 28.5170917,49.5726794 C28.7034672,49.3930144 29.5668952,48.798756 30.4079869,48.2248325 C37.1184672,43.6116746 54.9406288,31.3628708 54.9406288,14.632488 C54.9406288,-0.633779904 41.2401048,10.9164593 29.4295153,10.9114354" id="Fill-6" fill="#BF5661" sketch:type="MSShapeGroup" mask="url(#mask-4)"></path>
                    </g>
                    <g id="Group-11">
                        <mask id="mask-6" sketch:name="Clip 10" fill="white">
                            <use xlink:href="#path-5"></use>
                        </mask>
                        <g id="Clip-10"></g>
                        <path d="M37.675048,38.3527512 C34.4497424,36.3663876 31.4115328,34.1338517 28.697559,31.5910287 L28.6406376,31.6482057 C27.8977773,32.3946172 26.9207467,32.7690191 25.9427555,32.7690191 C24.9676463,32.7690191 23.9906157,32.3946172 23.2477555,31.6482057 L16.2910961,24.6618421 C15.1735633,23.5400718 15.1735633,21.7194976 16.2910961,20.5972488 C17.4086288,19.4747608 19.2185852,19.4747608 20.3361179,20.5972488 L20.4477991,20.709689 C20.3783886,20.5706938 20.3039345,20.4364833 20.2362052,20.2965311 C17.1473188,13.9190191 15.387559,7.05921053 14.4040437,0.0781100478 C14.1890873,0.0496411483 13.97269,0.0305023923 13.75269,0.0305023923 C5.91146725,0.0305023923 4.80349345e-05,6.30849282 4.80349345e-05,14.6326555 C4.80349345e-05,31.3611244 17.8224498,43.6104067 24.5314891,48.2230861 C25.370179,48.7953349 26.2405721,49.3915072 26.4291092,49.5726077 C26.7115546,49.8616029 27.0869476,50.0001196 27.460179,50.0001196 C27.8434978,50.0001196 28.224655,49.8604067 28.5169476,49.5726077 C28.7035633,49.3929426 29.5669913,48.7986842 30.4078428,48.225 C32.8744367,46.5293062 36.8426026,43.8003589 40.8748952,40.1986842 C39.7924279,39.6113636 38.7238908,38.9989234 37.675048,38.3527512" id="Fill-9" fill="#AB4A50" sketch:type="MSShapeGroup" mask="url(#mask-6)"></path>
                    </g>
                </g>
            </g>
        </g>
    </g>
</svg>