<?xml version="1.0" encoding="UTF-8" standalone="no"?>
<svg width="46px" height="59px" viewBox="0 0 46 59" version="1.1" xmlns="http://www.w3.org/2000/svg" xmlns:xlink="http://www.w3.org/1999/xlink" xmlns:sketch="http://www.bohemiancoding.com/sketch/ns">
    <!-- Generator: Sketch 3.4.4 (17249) - http://www.bohemiancoding.com/sketch -->
    <title>HA ICON</title>
    <desc>Created with Sketch.</desc>
    <defs>
        <path id="path-1" d="M0,0.182619048 L45.8717007,0.182619048 L45.8717007,59 L0,59 L0,0.182619048 Z"></path>
        <path id="path-3" d="M0,0.182619048 L45.8717007,0.182619048 L45.8717007,59 L0,59 L0,0.182619048 Z"></path>
        <path id="path-5" d="M0,0.182619048 L45.8717007,0.182619048 L45.8717007,59 L0,59"></path>
    </defs>
    <g id="Page-1" stroke="none" stroke-width="1" fill="none" fill-rule="evenodd" sketch:type="MSPage">
        <g id="Home-Screen-(iPhone-5/5S/5C-Portrait-320x568)" sketch:type="MSArtboardGroup" transform="translate(-24.000000, -142.000000)">
            <g id="HA-Tile" sketch:type="MSLayerGroup" transform="translate(10.000000, 127.000000)">
                <g id="HA-ICON" transform="translate(14.000000, 15.000000)">
                    <g id="Group-3">
                        <mask id="mask-2" sketch:name="Clip 2" fill="white">
                            <use xlink:href="#path-1"></use>
                        </mask>
                        <g id="Clip-2"></g>
                        <path d="M45.8718259,56.2112354 C45.8718259,57.751791 44.5005878,59.0001561 42.8089143,59.0001561 L3.06272381,59.0001561 C1.37136327,59.0001561 0.000125170068,57.751791 0.000125170068,56.2112354 L0.000125170068,2.9713836 C0.000125170068,1.43114021 1.37136327,0.182775132 3.06272381,0.182775132 L42.8089143,0.182775132 C44.5005878,0.182775132 45.8718259,1.43114021 45.8718259,2.9713836 L45.8718259,56.2112354 Z" id="Fill-1" fill="#FFFFFF" sketch:type="MSShapeGroup" mask="url(#mask-2)"></path>
                    </g>
                    <g id="Group-6">
                        <mask id="mask-4" sketch:name="Clip 5" fill="white">
                            <use xlink:href="#path-3"></use>
                        </mask>
                        <g id="Clip-5"></g>
                        <path d="M45.8718259,56.2112354 C45.8718259,57.751791 44.5005878,59.0001561 42.8089143,59.0001561 L0.000125170068,2.9713836 C0.000125170068,1.43114021 1.37136327,0.182775132 3.06272381,0.182775132 L42.8089143,0.182775132 C44.5005878,0.182775132 45.8718259,1.43114021 45.8718259,2.9713836 L45.8718259,56.2112354 Z" id="Fill-4" fill="#F4F4F4" sketch:type="MSShapeGroup" mask="url(#mask-4)"></path>
                    </g>
                    <g id="Group-9">
                        <mask id="mask-6" sketch:name="Clip 8" fill="white">
                            <use xlink:href="#path-5"></use>
                        </mask>
                        <g id="Clip-8"></g>
                        <path d="M45.8718259,22.1567164 L45.8718259,2.97141481 C45.8718259,1.43085926 44.5005878,0.18249418 42.8089143,0.18249418 L23.8950912,0.18249418 C31.2241116,7.50380106 38.5456218,14.8326 45.8718259,22.1567164" id="Fill-7" fill="#E5E5E5" sketch:type="MSShapeGroup" mask="url(#mask-6)"></path>
                    </g>
                    <path d="M39.4290408,37.945054 C39.4290408,38.465128 39.005966,38.887181 38.4846327,38.887181 L7.94532653,38.887181 C7.4239932,38.887181 7.00091837,38.465128 7.00091837,37.945054 C7.00091837,37.4246677 7.4239932,37.0026148 7.94532653,37.0026148 L38.4846327,37.0026148 C39.005966,37.0026148 39.4290408,37.4246677 39.4290408,37.945054" id="Fill-10" fill="#4B4C4C" sketch:type="MSShapeGroup"></path>
                    <path d="M29.9242517,43.5226455 C29.9242517,44.0427196 29.6250952,44.4647725 29.2567823,44.4647725 L7.66838776,44.4647725 C7.30007483,44.4647725 7.00091837,44.0427196 7.00091837,43.5226455 C7.00091837,43.0019471 7.30007483,42.5802063 7.66838776,42.5802063 L29.2567823,42.5802063 C29.6250952,42.5802063 29.9242517,43.0019471 29.9242517,43.5226455" id="Fill-12" fill="#4B4C4C" sketch:type="MSShapeGroup"></path>
                    <path d="M39.4290408,49.100237 C39.4290408,49.6203111 39.005966,50.042364 38.4846327,50.042364 L7.94532653,50.042364 C7.4239932,50.042364 7.00091837,49.6203111 7.00091837,49.100237 C7.00091837,48.5795386 7.4239932,48.1577979 7.94532653,48.1577979 L38.4846327,48.1577979 C39.005966,48.1577979 39.4290408,48.5795386 39.4290408,49.100237" id="Fill-14" fill="#4B4C4C" sketch:type="MSShapeGroup"></path>
                    <path d="M39.4290408,30.0676487 C39.4290408,30.7584794 39.005966,31.3191354 38.4846327,31.3191354 L7.94532653,31.3191354 C7.4239932,31.3191354 7.00091837,30.7584794 7.00091837,30.0676487 C7.00091837,29.3761937 7.4239932,28.8155376 7.94532653,28.8155376 L38.4846327,28.8155376 C39.005966,28.8155376 39.4290408,29.3761937 39.4290408,30.0676487" id="Fill-16" fill="#4B4C4C" sketch:type="MSShapeGroup"></path>
                    <path d="M37.3936503,11.5557587 C36.7408884,11.5557587 36.161351,11.9391026 35.8903578,12.4794677 C35.6196776,11.9391026 35.040766,11.5557587 34.3880041,11.5557587 C33.5290245,11.5557587 32.8812694,12.2447164 32.8812694,13.1578116 C32.8812694,14.993055 34.8336095,16.3369439 35.5686707,16.8429704 C35.6603578,16.9057164 35.7558,16.971272 35.7764531,16.9906265 C35.8074327,17.0230921 35.8487388,17.0380762 35.889419,17.0380762 C35.931351,17.0380762 35.9729701,17.0230921 36.0052014,16.9906265 C36.0255415,16.9718963 36.1200449,16.9063407 36.2123578,16.8429704 C36.947419,16.3369439 38.8997592,14.9933672 38.8997592,13.1578116 C38.8997592,12.2447164 38.252317,11.5557587 37.3936503,11.5557587" id="Fill-18" fill="#E86776" sketch:type="MSShapeGroup"></path>
                    <path d="M16.6365415,19.3661101 C16.6365415,17.8258667 15.3851537,16.5771894 13.840868,16.5771894 L13.3971401,16.5771894 C13.4168544,16.4888455 13.4281197,16.3967556 13.4325007,16.3027926 C13.6900381,16.1011312 13.9128408,15.8292317 14.1228136,15.4742952 C14.459834,14.9048984 14.8819701,14.0174011 14.9655211,13.2266762 C15.1075891,13.1982688 15.2177388,13.0709037 15.2177388,12.911073 L15.2177388,12.5948455 C15.2177388,12.4347026 15.1075891,12.3076497 14.9652082,12.2792423 C14.9326639,11.7307608 14.8431673,11.2172423 14.6031537,10.7798931 C14.0555347,9.78032698 12.966868,8.99053862 11.783385,8.99053862 C10.5886367,8.99053862 9.48213333,9.76440635 8.93670476,10.7798931 C8.70514014,11.2109989 8.62565714,11.7282635 8.59843265,12.2739354 C8.44384762,12.2914169 8.32211973,12.4259619 8.32211973,12.5948455 L8.32211973,12.911073 C8.32211973,13.0808931 8.44478639,13.2157503 8.6003102,13.2319831 C8.6785415,14.0030413 9.06625578,14.7375757 9.4170449,15.311655 C9.65392925,15.6993693 9.91647347,16.0165333 10.2228272,16.2594011 C10.2250177,16.368036 10.2378476,16.4747979 10.2606912,16.5771894 L9.81665034,16.5771894 C8.27267755,16.5771894 7.0212898,17.8258667 7.0212898,19.3661101 C7.0212898,19.3661101 6.97560272,19.5849407 7.0212898,19.6336392 C7.83614694,20.501782 10.5914531,20.4471524 11.783385,20.4477767 C12.9978476,20.4484011 15.8057252,20.5177026 16.6365415,19.6336392 C16.6825415,19.5852529 16.6365415,19.3661101 16.6365415,19.3661101" id="Fill-20" fill="#4B4C4C" sketch:type="MSShapeGroup"></path>
                </g>
            </g>
        </g>
    </g>
</svg>