<?xml version="1.0" encoding="UTF-8" standalone="no"?>
<svg width="46px" height="69px" viewBox="0 0 46 69" version="1.1" xmlns="http://www.w3.org/2000/svg" xmlns:xlink="http://www.w3.org/1999/xlink" xmlns:sketch="http://www.bohemiancoding.com/sketch/ns">
    <!-- Generator: Sketch 3.4.4 (17249) - http://www.bohemiancoding.com/sketch -->
    <title>Rewards Icon</title>
    <desc>Created with Sketch.</desc>
    <defs>
        <path id="path-1" d="M0,0.0522573529 L45.8132198,0.0522573529 L45.8132198,69 L0,69 L0,0.0522573529 Z"></path>
    </defs>
    <g id="Page-1" stroke="none" stroke-width="1" fill="none" fill-rule="evenodd" sketch:type="MSPage">
        <g id="Home-Screen-(iPhone-5/5S/5C-Portrait-320x568)" sketch:type="MSArtboardGroup" transform="translate(-22.000000, -710.000000)">
            <g id="Rewards" sketch:type="MSLayerGroup" transform="translate(10.000000, 697.000000)">
                <g id="Rewards-Icon" transform="translate(12.000000, 13.000000)">
                    <path d="M12.3519099,38.4329746 L6.23567912,63.9784489 C6.09085495,64.5908239 6.31377802,65.2336401 6.80714066,65.619482 C7.15239341,65.886096 7.58004176,65.9949232 7.99353626,65.9396217 C8.31831648,65.983254 8.65497582,65.9261768 8.95271209,65.7643312 L13.5620637,63.2775408 L16.6152505,67.734129 C16.9162725,68.171721 17.4073604,68.4253974 17.9211956,68.4253974 C17.9929758,68.4253974 18.0632396,68.4198165 18.134767,68.4099232 C18.2050308,68.4198165 18.274789,68.4253974 18.3463165,68.4253974 C18.4418549,68.4253974 18.5391626,68.4157577 18.6347011,68.395971 C19.2526681,68.2825776 19.7412286,67.8155592 19.888833,67.2026768 L23.0249209,54.1525445 L26.300778,67.7785224 C26.4491407,68.389629 26.9382066,68.8584232 27.5546571,68.9720702 C27.6507011,68.9921107 27.7480088,68.9999746 27.8438,68.9999746 C28.3599099,68.9999746 28.8499868,68.7457908 29.1492396,68.309721 L32.3186901,63.686721 L37.2358879,66.3394158 C37.7863714,66.6377393 38.4601956,66.5799011 38.9578549,66.1948202 C39.3933385,65.8556548 39.6172725,65.3178607 39.5664703,64.7752467 C39.6342066,64.5192871 39.6405253,64.2463312 39.5773385,63.9784489 L33.3342286,38.0024857 C24.7984484,37.4441438 20.8876901,38.1579893 12.3519099,38.4329746" id="Fill-1" fill="#06638C" sketch:type="MSShapeGroup"></path>
                    <path d="M23.0249209,54.1524937 L26.300778,67.7784717 C26.4491407,68.3895783 26.9379538,68.8583724 27.5546571,68.9720195 C27.6507011,68.9920599 27.7480088,68.9999239 27.8438,68.9999239 C28.3599099,68.9999239 28.8499868,68.7457401 29.1492396,68.3099239 L32.3184374,63.6866702 L37.2358879,66.3393651 C37.7863714,66.6376886 38.4601956,66.5798504 38.9578549,66.1947695 C39.3933385,65.855604 39.6170198,65.3178099 39.5664703,64.775196 C39.6342066,64.5192364 39.6405253,64.2462805 39.5773385,63.9783982 L33.3342286,38.0024349 C24.7984484,37.444093 23.0249209,54.1524937 23.0249209,54.1524937" id="Fill-3" fill="#066D91" sketch:type="MSShapeGroup"></path>
                    <g id="Group-7">
                        <mask id="mask-2" sketch:name="Clip 6" fill="white">
                            <use xlink:href="#path-1"></use>
                        </mask>
                        <g id="Clip-6"></g>
                        <path d="M22.7012275,8.44539706 C30.6362275,8.44539706 37.0686451,14.9202353 37.0686451,22.9097757 C37.0686451,30.9018529 30.6362275,37.3774522 22.7012275,37.3774522 C15.1981725,37.3774522 9.0415022,31.5867794 8.39295275,24.2007353 C8.38435934,23.99475 8.37197473,23.7890184 8.37273297,23.5825257 C8.36515055,23.581511 8.35731538,23.5810037 8.34973297,23.579989 C8.33987582,23.3575147 8.33305165,23.1345331 8.33305165,22.9097757 C8.33305165,14.9202353 14.7659747,8.44539706 22.7012275,8.44539706 L22.7012275,8.44539706 Z M45.236678,24.3519265 C45.6021505,24.0462463 45.8131945,23.5939412 45.8131945,23.1170294 C45.8131945,22.640625 45.6021505,22.1878125 45.236678,21.8836544 L42.0932604,19.2730699 L44.0083264,15.6523456 C44.2330187,15.230989 44.2560187,14.7299779 44.0735352,14.2885809 C43.8915571,13.8489596 43.5220407,13.5110625 43.0711396,13.3720478 L39.170744,12.1769779 L39.5622495,8.09304044 C39.6064802,7.61866544 39.4394143,7.14860294 39.1052824,6.8094375 C38.7827769,6.48650735 38.3432495,6.31806618 37.8903264,6.34444853 C37.8109637,6.33988235 37.7285681,6.34140441 37.6471835,6.35028309 L33.7687769,6.72394853 L32.5887,2.81656985 C32.4499418,2.36045956 32.1140407,1.98730147 31.6780516,1.80668382 C31.4531066,1.71231618 31.2145132,1.67223529 30.9771835,1.68669485 C30.6898099,1.67020588 30.3999088,1.73184926 30.1393264,1.87137132 L26.6683484,3.73081985 L24.1312714,0.635205882 C23.8289857,0.267628676 23.3801066,0.0522573529 22.9069637,0.0522573529 C22.8761286,0.0522573529 22.8457989,0.0547941176 22.8152165,0.0570772059 C22.7858978,0.0547941176 22.7560736,0.0522573529 22.7249857,0.0522573529 L22.7249857,0.0631654412 C22.3195791,0.111871324 21.9460187,0.315066176 21.6834143,0.635205882 L19.0889637,3.79956618 L15.4918648,1.87137132 C15.0720516,1.647375 14.5751505,1.62175368 14.1371396,1.80668382 C13.6991286,1.98730147 13.364744,2.36045956 13.2259857,2.81656985 L12.0400956,6.74170588 L7.98451319,6.35028309 C7.5090956,6.304875 7.0447989,6.47356985 6.71066703,6.81070588 C6.37527143,7.14860294 6.20694176,7.61866544 6.25243626,8.09304044 L6.64166703,12.1769779 L2.74354615,13.3733162 C2.28986484,13.5110625 1.92085385,13.8489596 1.73837033,14.2898493 C1.5568978,14.7299779 1.58217253,15.2320037 1.8050956,15.6523456 L3.71990879,19.2748456 L0.576238462,21.8866985 C0.21026044,22.1908566 -2.52747253e-05,22.6429081 -2.52747253e-05,23.1205809 C-2.52747253e-05,23.5954632 0.211018681,24.0482757 0.576238462,24.3519265 L3.28973297,26.6050809 C3.27810659,26.6509963 3.26673297,26.6958971 3.25080989,26.7395294 L3.38097473,26.8483566 L1.40524945,30.3617757 C1.17626044,30.7717169 1.14390879,31.2587757 1.31704066,31.6933235 C1.47652418,32.0855074 1.78942527,32.3899191 2.18219451,32.5510037 C2.34546923,32.6910331 2.53376593,32.8011287 2.74354615,32.8658162 L6.18267802,33.9211103 L5.73000769,37.8155515 C5.67794176,38.2792721 5.83868901,38.7447684 6.16801868,39.0773382 C6.33786484,39.2493309 6.54233736,39.3776912 6.76601868,39.4570919 C7.02280989,39.5851985 7.31448022,39.6420221 7.60943626,39.6191912 L11.5381396,39.2980368 L12.6464363,43.0674154 C12.7788758,43.5149007 13.1069418,43.8824779 13.5419198,44.0674081 C13.569722,44.0795846 13.5987879,44.0892243 13.6276011,44.0983566 C13.6533813,44.1120551 13.6799198,44.1252463 13.7092385,44.1376765 L13.7130297,44.1280368 C14.1055462,44.2421912 14.5291505,44.2051544 14.8974033,44.0197169 L18.5359527,42.1876654 L21.0813703,45.3198088 C21.3791066,45.6835809 21.8254582,45.9009816 22.3021396,45.9050404 C22.7765462,45.9129044 23.2312385,45.7079338 23.5398429,45.3525331 L26.1833264,42.2901507 L29.758689,44.2198676 C30.1782495,44.445386 30.6713593,44.4750662 31.1121505,44.3023125 C31.554711,44.1293051 31.895667,43.7731434 32.0415022,43.3292096 L33.299678,39.5096029 L37.3585462,39.9532831 C37.830678,40.0052868 38.3028099,39.8459779 38.6450297,39.520511 C38.9869967,39.1963125 39.1624033,38.735636 39.1239857,38.2709007 L38.8042604,34.3746838 C38.8851396,34.300864 38.9781505,34.240489 39.0825352,34.1900074 L42.7205791,33.1509485 C43.0198319,33.0652059 43.2763703,32.8906765 43.4752824,32.6641434 C43.7371286,32.4898676 43.9504473,32.2460846 44.0735352,31.9472537 C44.2547549,31.507125 44.2302385,31.0063676 44.0083264,30.5857721 L42.1700956,27.107614 L42.2749857,27.0249154 C42.2229198,27.0198419 42.1706011,27.0155294 42.1182824,27.0102022 L42.0932604,26.962511 L45.236678,24.3519265 Z" id="Fill-5" fill="#0678AA" sketch:type="MSShapeGroup" mask="url(#mask-2)"></path>
                    </g>
                    <path d="M5.73013407,37.8156276 C5.67806813,38.2793482 5.83856264,38.7448445 6.16814505,39.0774143 C6.33799121,39.2491533 6.54221099,39.3777673 6.76589231,39.457168 C7.02268352,39.5852746 7.31435385,39.6418445 7.60956264,39.6190136 L11.5382659,39.2981129 L11.8936286,40.507896 C13.536233,39.1162268 15.0448813,37.5779327 16.4605187,35.9409585 C12.018233,33.7786202 8.84852967,29.383929 8.39282637,24.2008114 C8.38448571,23.9948261 8.37184835,23.7890945 8.37285934,23.5826018 C8.36502418,23.5815871 8.35744176,23.5810798 8.34985934,23.5800651 C8.33974945,23.3575908 8.33317802,23.1346092 8.33317802,22.9095982 C8.33317802,14.9203114 14.7661011,8.44547316 22.7013538,8.44547316 C26.1316396,8.44547316 29.2798593,9.65703199 31.7499582,11.6765504 C32.4935407,9.79021213 33.0943209,7.85263125 33.5045297,5.84934816 L32.5885736,2.81639228 C32.4498154,2.36028199 32.1139143,1.98737757 31.678178,1.80675993 C31.453233,1.71239228 31.2143868,1.67205772 30.9770571,1.68677096 C30.6899363,1.67028199 30.4000352,1.73192537 30.1392,1.87144743 L26.668222,3.73089596 L24.1311451,0.635281985 C23.8291121,0.267451103 23.380233,0.0523334559 22.9068374,0.0523334559 C22.8762549,0.0523334559 22.8459253,0.0546165441 22.8153429,0.0568996324 C22.7857714,0.0546165441 22.7559473,0.0523334559 22.7251121,0.0523334559 L22.7251121,0.0632415441 C22.3194527,0.111947426 21.9458923,0.315142279 21.6832879,0.635281985 L19.0890901,3.79964228 L15.4919912,1.87144743 C15.072178,1.6474511 14.5752769,1.6215761 14.1372659,1.80675993 C13.6992549,1.98737757 13.3648703,2.36028199 13.2261121,2.81639228 L12.040222,6.74178199 L7.98463956,6.35035919 C7.50922198,6.3049511 7.04492527,6.47339228 6.71054066,6.81052831 C6.3753978,7.14842537 6.20681538,7.61874154 6.25230989,8.09311654 L6.64154066,12.177054 L2.74341978,13.3733923 C2.28973846,13.5111386 1.92072747,13.8490357 1.7384967,14.2899254 C1.55677143,14.730054 1.58204615,15.2320798 1.80496923,15.6524217 L3.71978242,19.2749217 L0.576364835,21.8867746 C0.210386813,22.190679 0.000101098901,22.6429842 0.000101098901,23.1204033 C0.000101098901,23.5952857 0.211145055,24.0483518 0.576364835,24.3520026 L3.28985934,26.605157 C3.27798022,26.6508187 3.26660659,26.6959732 3.25093626,26.7396055 L3.38084835,26.8484327 L1.40512308,30.3618518 C1.17638681,30.7715393 1.14403516,31.2585982 1.31716703,31.693146 C1.4763978,32.0855835 1.78955165,32.3897415 2.18206813,32.5510798 C2.34534286,32.6911092 2.53389231,32.8009511 2.74341978,32.8656386 L6.1828044,33.9211864 L5.73013407,37.8156276 Z" id="Fill-8" fill="#0880AA" sketch:type="MSShapeGroup"></path>
                    <path d="M37.2291396,22.9582279 C37.2291396,30.9485294 30.7749857,37.4261581 22.8129418,37.4261581 C14.8508978,37.4261581 8.39674396,30.9485294 8.39674396,22.9582279 C8.39674396,14.9664044 14.8508978,8.48776103 22.8129418,8.48776103 C30.7749857,8.48776103 37.2291396,14.9664044 37.2291396,22.9582279" id="Fill-10" fill="#06638C" sketch:type="MSShapeGroup"></path>
                    <path d="M37.2291396,22.9582279 C37.2291396,30.9485294 30.7749857,37.4261581 22.8129418,37.4261581 C14.8508978,37.4261581 8.39674396,30.9485294 8.39674396,22.9582279 C8.39674396,14.9664044 14.8508978,8.48776103 22.8129418,8.48776103 C30.7749857,8.48776103 37.2291396,14.9664044 37.2291396,22.9582279 L37.2291396,22.9582279 Z" id="Stroke-12" stroke="#005A7A" stroke-width="4.369" sketch:type="MSShapeGroup"></path>
                    <path d="M21.4588231,36.2346143 C13.9191198,36.2346143 9.27084505,30.1791033 9.27084505,22.6121879 C9.27084505,15.0447651 15.3830319,8.90959963 22.9227352,8.90959963 C30.4624385,8.90959963 28.9985264,36.2346143 21.4588231,36.2346143" id="Fill-14" fill="#0882AD" sketch:type="MSShapeGroup"></path>
                    <path d="M21.2725989,35.0992599 C14.5100934,35.0992599 10.3407747,29.6690614 10.3407747,22.8811864 C10.3407747,16.0933114 28.0348516,35.0992599 21.2725989,35.0992599" id="Fill-16" fill="#3EB4DD" sketch:type="MSShapeGroup"></path>
                </g>
            </g>
        </g>
    </g>
</svg>